<svg xmlns="http://www.w3.org/2000/svg" width="920" height="340" viewBox="0 0 920 340">
<rect width="100%" height="100%" fill="#ffffff"/>
<style>text{font-family:system-ui,sans-serif;fill:#20252b}.small{font-size:13px}.value{font-size:13px;font-weight:600}.title{font-size:18px;font-weight:700}</style>
<text x="16" y="27" class="title">Measured MPS inference latency</text>
<text x="16" y="66" class="small">Dinomaly · 196x196</text>
<rect x="210" y="48" width="620" height="24" rx="3" fill="#edf0f3"/>
<rect x="210" y="48" width="14.4" height="24" rx="3" fill="#0f8fa8"/>
<text x="232.4" y="66" class="value">13.7 ms</text>
<text x="16" y="104" class="small">Dinomaly · 392x392</text>
<rect x="210" y="86" width="620" height="24" rx="3" fill="#edf0f3"/>
<rect x="210" y="86" width="44.4" height="24" rx="3" fill="#0f8fa8"/>
<text x="262.4" y="104" class="value">42.3 ms</text>
<text x="16" y="142" class="small">GLASS · 144x144</text>
<rect x="210" y="124" width="620" height="24" rx="3" fill="#edf0f3"/>
<rect x="210" y="124" width="13.3" height="24" rx="3" fill="#8b6bb7"/>
<text x="231.3" y="142" class="value">12.7 ms</text>
<text x="16" y="180" class="small">GLASS · 288x288</text>
<rect x="210" y="162" width="620" height="24" rx="3" fill="#edf0f3"/>
<rect x="210" y="162" width="32.4" height="24" rx="3" fill="#8b6bb7"/>
<text x="250.4" y="180" class="value">30.9 ms</text>
<text x="16" y="218" class="small">AnomalyVFM · 256x256</text>
<rect x="210" y="200" width="620" height="24" rx="3" fill="#edf0f3"/>
<rect x="210" y="200" width="92.7" height="24" rx="3" fill="#d17a22"/>
<text x="310.7" y="218" class="value">88.4 ms</text>
<text x="16" y="256" class="small">AnomalyVFM · 512x512</text>
<rect x="210" y="238" width="620" height="24" rx="3" fill="#edf0f3"/>
<rect x="210" y="238" width="273.1" height="24" rx="3" fill="#d17a22"/>
<text x="491.1" y="256" class="value">260.5 ms</text>
<text x="16" y="294" class="small">AnomalyVFM · 768x768</text>
<rect x="210" y="276" width="620" height="24" rx="3" fill="#edf0f3"/>
<rect x="210" y="276" width="620.0" height="24" rx="3" fill="#d17a22"/>
<text x="838.0" y="294" class="value">591.3 ms</text>
</svg>
